<svg xmlns="http://www.w3.org/2000/svg" xmlns:xlink="http://www.w3.org/1999/xlink" width="500" zoomAndPan="magnify" viewBox="0 0 375 374.999991" height="500" preserveAspectRatio="xMidYMid meet" version="1.0"><defs><clipPath id="39b654dd77"><path d="M 30 0 L 227.269531 0 L 227.269531 375 L 30 375 Z M 30 0 " clip-rule="nonzero"/></clipPath><clipPath id="274be77531"><path d="M 27.769531 168 L 137 168 L 137 374 L 27.769531 374 Z M 27.769531 168 " clip-rule="nonzero"/></clipPath></defs><g clip-path="url(#39b654dd77)"><path fill="#ffffff" d="M 142.019531 374.960938 C 142.019531 374.960938 146.980469 235.164062 147.417969 223.980469 C 148.015625 208.53125 151.910156 141.195312 151.886719 139.78125 C 151.847656 137.304688 151.824219 137.214844 151.164062 137.214844 C 149.023438 137.496094 147.074219 138.578125 144.925781 138.832031 C 141.9375 138.183594 139.121094 136.578125 136.605469 134.867188 C 135.070312 133.132812 136.042969 130.238281 136.84375 128.136719 C 137.023438 127.664062 137.75 126.277344 138.1875 124.90625 C 140.683594 117.125 140.355469 117.820312 141.886719 117.023438 C 144.421875 116.214844 146.816406 118.246094 148.761719 119.75 L 149.832031 120.605469 C 152.703125 119.488281 155.773438 118.957031 158.570312 117.652344 C 158.640625 117.605469 158.113281 116.96875 157.398438 116.234375 C 156.230469 115.039062 153.917969 113.523438 149.417969 111.007812 C 148.578125 110.535156 139.882812 103.847656 137.410156 101.542969 C 134.609375 98.925781 132.007812 96.296875 125.320312 89.320312 C 116.773438 80.410156 112.417969 76.085938 92.847656 57.097656 C 90.71875 55.03125 74.847656 40.636719 73.347656 39.28125 C 70.589844 36.792969 33.503906 4.953125 32.519531 4.09375 C 30.554688 2.375 30.121094 1.765625 30.371094 1.109375 C 30.800781 -0.0078125 34.960938 1.480469 38.914062 4.167969 C 40.078125 4.957031 77.546875 34.324219 79.738281 36.035156 C 80.789062 36.855469 102.09375 54.699219 103.335938 55.582031 C 104.75 56.589844 125.558594 74.628906 127.808594 76.761719 C 129.042969 77.929688 156.890625 102.480469 161.898438 106.964844 C 164.523438 109.316406 166.34375 110.71875 167.140625 111 C 167.808594 111.238281 168.5 111.542969 168.675781 111.675781 C 168.851562 111.8125 169.300781 112 169.671875 112.089844 C 170.519531 112.296875 172.214844 110.894531 172.503906 109.746094 C 172.878906 108.242188 177.011719 100.132812 178.132812 98.699219 C 180.027344 96.269531 196.46875 82.441406 198.03125 81.230469 C 199.59375 80.023438 217.046875 66.292969 217.679688 65.765625 C 222.722656 61.570312 225.894531 59.160156 226.574219 59.011719 C 227.160156 58.882812 227.460938 59.515625 227.46875 60.886719 C 227.472656 62.347656 225.984375 64.800781 223.1875 67.9375 C 222.15625 69.089844 206.207031 87.839844 205.117188 88.980469 C 204.027344 90.117188 188.363281 107.671875 185.167969 110.875 L 179.355469 116.695312 L 179.101562 118.382812 C 178.640625 121.425781 178.375 122.144531 177.273438 123.355469 C 176.554688 124.226562 176.453125 125.304688 176.597656 126.40625 C 176.71875 127.34375 177.125 129.683594 177.789062 132.085938 C 178.011719 132.894531 184 155.402344 184.210938 156.417969 C 184.472656 157.648438 199.589844 202.121094 199.929688 203.167969 C 200.265625 204.214844 213.039062 250.355469 213.246094 251.242188 C 216.941406 264.757812 219.867188 278.46875 222.96875 292.128906 C 223.300781 293.667969 223.917969 297.574219 224.21875 300.34375 C 224.195312 300.609375 224.054688 300.777344 223.796875 300.777344 C 223.550781 300.777344 223.273438 300.546875 223.183594 300.265625 C 223.089844 299.980469 222.554688 298.566406 221.988281 297.113281 C 220.621094 293.601562 219.453125 289.996094 218.390625 286.023438 C 217.910156 284.222656 210.089844 256.699219 209.28125 253.878906 C 208.476562 251.058594 194.894531 206.414062 194.050781 203.753906 C 189.871094 190.566406 178.410156 157.265625 176.746094 153.484375 C 173.929688 146.746094 171.503906 139.839844 168.527344 133.167969 C 167.589844 131.148438 167.09375 130.558594 166.4375 130.09375 C 165.800781 129.640625 165.148438 129.3125 164.992188 129.367188 C 164.832031 129.417969 164.347656 130.316406 163.914062 131.359375 C 163.136719 133.238281 163.128906 133.328125 163.230469 138.976562 C 163.285156 142.121094 167.839844 223.914062 167.957031 228.667969 L 171.566406 374.933594 L 142.019531 374.957031 Z M 142.019531 374.960938 " fill-opacity="1" fill-rule="nonzero"/></g><g clip-path="url(#274be77531)"><path fill="#ffffff" d="M 89.417969 373.417969 C 89.417969 373.417969 92.148438 297.046875 92.386719 290.941406 C 92.714844 282.5 94.859375 245.710938 94.84375 244.941406 C 94.824219 243.589844 94.808594 243.539062 94.449219 243.539062 C 93.269531 243.691406 92.199219 244.285156 91.015625 244.421875 C 89.375 244.066406 87.824219 243.191406 86.441406 242.257812 C 85.597656 241.308594 86.132812 239.726562 86.574219 238.578125 C 86.671875 238.320312 87.070312 237.5625 87.3125 236.816406 C 88.683594 232.566406 88.503906 232.945312 89.347656 232.507812 C 90.742188 232.066406 92.058594 233.175781 93.125 234 L 93.714844 234.464844 C 95.292969 233.855469 96.980469 233.566406 98.519531 232.851562 C 98.558594 232.828125 98.269531 232.476562 97.875 232.078125 C 97.230469 231.425781 95.960938 230.597656 93.488281 229.222656 C 93.023438 228.964844 88.242188 225.3125 86.886719 224.054688 C 85.34375 222.621094 83.914062 221.1875 80.234375 217.375 C 75.539062 212.507812 73.144531 210.144531 62.382812 199.773438 C 61.210938 198.640625 52.484375 190.777344 51.660156 190.039062 C 50.144531 188.679688 29.753906 171.285156 29.210938 170.816406 C 28.132812 169.875 27.890625 169.542969 28.03125 169.183594 C 28.265625 168.574219 30.554688 169.390625 32.726562 170.855469 C 33.367188 171.289062 53.96875 187.332031 55.175781 188.265625 C 55.75 188.714844 67.464844 198.460938 68.148438 198.945312 C 68.925781 199.492188 80.367188 209.347656 81.605469 210.511719 C 82.285156 211.152344 97.597656 224.566406 100.351562 227.015625 C 101.792969 228.300781 102.796875 229.066406 103.230469 229.21875 C 103.601562 229.347656 103.980469 229.515625 104.078125 229.589844 C 104.171875 229.664062 104.417969 229.765625 104.625 229.8125 C 105.089844 229.925781 106.023438 229.160156 106.179688 228.53125 C 106.386719 227.710938 108.660156 223.28125 109.277344 222.5 C 110.320312 221.171875 119.359375 213.617188 120.21875 212.957031 C 121.078125 212.296875 130.675781 204.796875 131.019531 204.507812 C 133.792969 202.214844 135.539062 200.898438 135.910156 200.816406 C 136.234375 200.746094 136.398438 201.09375 136.402344 201.839844 C 136.40625 202.640625 135.585938 203.980469 134.046875 205.695312 C 133.484375 206.324219 124.714844 216.566406 124.113281 217.1875 C 123.515625 217.8125 114.902344 227.402344 113.144531 229.152344 L 109.949219 232.332031 L 109.808594 233.25 C 109.554688 234.914062 109.410156 235.304688 108.804688 235.96875 C 108.410156 236.445312 108.351562 237.035156 108.429688 237.636719 C 108.5 238.148438 108.722656 239.425781 109.089844 240.738281 C 109.210938 241.179688 112.503906 253.476562 112.621094 254.027344 C 112.761719 254.703125 121.074219 278.996094 121.261719 279.570312 C 121.445312 280.140625 128.46875 305.347656 128.582031 305.832031 C 130.613281 313.214844 132.226562 320.707031 133.929688 328.167969 C 134.113281 329.007812 134.453125 331.144531 134.617188 332.65625 C 134.601562 332.800781 134.527344 332.894531 134.386719 332.894531 C 134.25 332.894531 134.097656 332.765625 134.046875 332.613281 C 133.996094 332.457031 133.703125 331.683594 133.390625 330.890625 C 132.636719 328.972656 131.996094 327.003906 131.414062 324.832031 C 131.148438 323.851562 126.847656 308.8125 126.40625 307.273438 C 125.960938 305.730469 118.492188 281.34375 118.03125 279.890625 C 115.730469 272.6875 109.429688 254.492188 108.515625 252.429688 C 106.964844 248.746094 105.632812 244.972656 103.996094 241.328125 C 103.480469 240.226562 103.207031 239.902344 102.847656 239.648438 C 102.496094 239.402344 102.136719 239.222656 102.050781 239.253906 C 101.964844 239.28125 101.699219 239.773438 101.460938 240.34375 C 101.03125 241.367188 101.027344 241.414062 101.082031 244.5 C 101.113281 246.21875 103.617188 290.902344 103.683594 293.5 L 105.667969 373.410156 L 89.417969 373.421875 Z M 89.417969 373.417969 " fill-opacity="1" fill-rule="nonzero"/></g></svg>